# xmcd CD database file
#
# Track frame offsets:
#	150
#	14602
#	33784
#	47473
#	67459
#	78740
#	98535
#	111585
#	122876
#	137419
#	148892
#	167987
#	181724
#	196843
#
# Disc length: 2836 seconds
#
# Revision: 0
# Processed by: cddbd v1.4PL0 Copyright (c) Steve Scherf et al.
# Submitted via: CDex 1.50beta9
#
DISCID=c70b120e
DTITLE=Isla Grant - Childhood Memories
DYEAR=1900
DGENRE=Country
TTITLE0=I Don't Know Why
TTITLE1=Childhood Memories
TTITLE2=If Only
TTITLE3=Don't Miss Me Goodbye
TTITLE4=How Many Times
TTITLE5=I'll Forgive You
TTITLE6=Galway Town
TTITLE7=Look Me Straight In The Eye
TTITLE8=Rachel Anna
TTITLE9=There's A Storm Brewing
TTITLE10=United We Conquer
TTITLE11=Flying High
TTITLE12=Darlin' When I'm Hurtin'
TTITLE13=The Day That Christ Was Born
EXTD=
EXTT0=
EXTT1=
EXTT2=
EXTT3=
EXTT4=
EXTT5=
EXTT6=
EXTT7=
EXTT8=
EXTT9=
EXTT10=
EXTT11=
EXTT12=
EXTT13=
PLAYORDER=
